<?xml version="1.0" standalone="no"?>
<!DOCTYPE svg PUBLIC "-//W3C//DTD SVG 20010904//EN"
 "http://www.w3.org/TR/2001/REC-SVG-20010904/DTD/svg10.dtd">
<svg version="1.0" xmlns="http://www.w3.org/2000/svg" viewBox="0 0 860.000000 1416.000000"
 preserveAspectRatio="xMidYMid meet">

<g transform="translate(0.000000,1416.000000) scale(0.100000,-0.100000)" stroke="none">
<path d="M7367 13725 c-21 -8 -60 -30 -85 -49 -26 -19 -1483 -1472 -3238
-3228 -2908 -2910 -3193 -3198 -3214 -3248 -31 -75 -31 -175 0 -250 21 -50
311 -343 3234 -3268 2952 -2954 3216 -3215 3276 -3245 54 -27 76 -32 135 -32
131 0 250 81 295 202 26 71 26 156 -1 230 -20 56 -126 162 -3110 3148 l-3089
3090 3081 3080 c2321 2320 3087 3092 3107 3130 23 44 27 62 27 140 0 78 -4 97
-27 141 -34 65 -114 138 -175 158 -57 19 -164 20 -216 1z"/>
</g>
</svg>
