<?xml version="1.0" standalone="no"?>
<!DOCTYPE svg PUBLIC "-//W3C//DTD SVG 20010904//EN"
 "http://www.w3.org/TR/2001/REC-SVG-20010904/DTD/svg10.dtd">
<svg version="1.0" xmlns="http://www.w3.org/2000/svg"
 width="200.000000pt" height="200.000000pt" viewBox="0 0 200.000000 200.000000"
 preserveAspectRatio="xMidYMid meet">

<g transform="translate(0.000000,200.000000) scale(0.100000,-0.100000)"
 stroke="none">
<path d="M472 1804 c-53 -26 -83 -58 -118 -124 -17 -31 -19 -65 -22 -323 l-3
-287 -27 -14 c-40 -21 -99 -86 -117 -128 -12 -31 -15 -86 -15 -305 0 -302 3
-315 76 -385 74 -71 42 -68 756 -68 602 0 646 2 683 19 51 23 118 98 133 149
15 49 16 521 2 573 -12 42 -79 123 -120 144 l-29 15 -3 287 -3 288 -30 54
c-16 29 -43 64 -60 77 -72 54 -67 54 -578 54 l-473 0 -52 -26z m1004 -167 l24
-28 0 -265 0 -264 -47 0 c-102 0 -199 -75 -228 -175 -36 -120 -86 -155 -225
-155 -138 0 -190 35 -223 150 -9 30 -30 71 -47 92 -41 49 -121 88 -182 88
l-48 0 0 263 c0 282 2 296 54 317 11 5 218 8 459 7 l439 -2 24 -28z m-887
-741 c11 -10 30 -48 42 -85 29 -88 116 -178 199 -207 78 -27 262 -27 340 0 73
26 168 119 193 191 42 118 56 128 176 121 130 -8 125 1 129 -264 4 -259 2
-276 -41 -303 -31 -19 -51 -19 -639 -17 l-607 3 -23 23 c-23 22 -23 26 -23
266 0 305 -5 296 167 292 49 -1 72 -6 87 -20z"/>
<path d="M776 1474 c-33 -34 -34 -74 -2 -111 l24 -28 189 -3 c203 -3 225 2
252 49 17 31 9 71 -21 99 -20 19 -35 20 -219 20 l-196 0 -27 -26z"/>
<path d="M804 1160 c-67 -27 -71 -114 -7 -148 29 -16 373 -16 406 -1 49 22 60
83 23 126 l-24 28 -189 2 c-103 1 -198 -2 -209 -7z"/>
</g>
</svg>
