<?xml version="1.0" standalone="no"?>
<!DOCTYPE svg PUBLIC "-//W3C//DTD SVG 20010904//EN"
 "http://www.w3.org/TR/2001/REC-SVG-20010904/DTD/svg10.dtd">
<svg version="1.0" xmlns="http://www.w3.org/2000/svg"
 width="1000.000000pt" height="1000.000000pt" viewBox="0 0 1000.000000 1000.000000"
 preserveAspectRatio="xMidYMid meet">

<g transform="translate(0.000000,1000.000000) scale(0.100000,-0.100000)"
>
<path d="M5008 9327 c-53 -32 -164 -102 -273 -173 -51 -34 -99 -64 -107 -68
-7 -3 -25 -14 -39 -24 -15 -9 -48 -30 -75 -47 -27 -16 -50 -33 -52 -37 -2 -4
-9 -8 -17 -8 -7 0 -19 -7 -26 -16 -7 -9 -22 -20 -34 -25 -11 -5 -33 -18 -50
-29 -16 -11 -37 -23 -45 -27 -8 -4 -20 -12 -27 -17 -6 -6 -55 -38 -108 -71
-146 -92 -289 -184 -302 -195 -7 -5 -15 -10 -19 -10 -3 0 -26 -13 -51 -30 -24
-16 -48 -30 -52 -30 -5 0 -15 -7 -22 -16 -7 -9 -22 -20 -34 -25 -11 -5 -54
-32 -95 -59 -41 -28 -82 -53 -90 -58 -8 -4 -47 -28 -87 -54 -40 -27 -76 -48
-82 -48 -5 0 -11 -4 -13 -8 -3 -7 -33 -27 -186 -124 -15 -10 -34 -21 -42 -25
-8 -4 -36 -22 -61 -40 -26 -18 -51 -33 -58 -33 -6 0 -11 -4 -11 -8 0 -5 -10
-14 -22 -21 -13 -6 -36 -20 -53 -31 -16 -11 -39 -24 -50 -30 -29 -15 -56 -33
-79 -52 -11 -10 -26 -18 -33 -18 -7 0 -13 -3 -13 -7 0 -5 -21 -20 -48 -36 -26
-15 -56 -33 -67 -40 -49 -30 -100 -63 -120 -77 -12 -8 -44 -28 -71 -45 -27
-16 -50 -33 -52 -37 -2 -4 -9 -8 -16 -8 -7 0 -21 -8 -32 -18 -10 -10 -26 -21
-34 -25 -8 -4 -28 -16 -45 -27 -16 -11 -38 -23 -48 -26 -9 -4 -17 -10 -17 -14
0 -4 -13 -13 -30 -20 -16 -7 -30 -16 -30 -21 0 -5 -9 -9 -19 -9 -11 0 -21 -3
-23 -7 -4 -10 -75 -63 -83 -63 -3 0 -37 -20 -75 -45 -38 -25 -74 -45 -79 -45
-6 0 -11 -4 -11 -8 0 -5 -16 -17 -35 -28 -19 -10 -35 -22 -35 -26 0 -5 -5 -8
-10 -8 -6 0 -29 -12 -53 -27 -61 -40 -80 -51 -102 -62 -39 -18 -116 -102 -135
-147 -20 -45 -20 -84 -20 -1999 0 -1838 1 -1957 17 -1992 19 -41 107 -133 128
-133 6 0 20 -9 30 -20 10 -11 22 -20 26 -20 4 0 28 -13 52 -30 25 -16 50 -30
56 -30 6 0 11 -3 11 -8 0 -4 16 -16 35 -26 19 -11 35 -23 35 -28 0 -4 5 -8 11
-8 5 0 41 -20 79 -45 38 -25 72 -45 75 -45 8 0 79 -53 83 -62 2 -5 12 -8 23
-8 10 0 19 -4 19 -9 0 -5 14 -14 30 -21 16 -7 30 -16 30 -20 0 -4 8 -10 18
-14 9 -3 31 -15 47 -26 17 -11 37 -23 45 -27 8 -4 24 -15 34 -25 11 -10 25
-18 32 -18 7 0 14 -4 16 -8 2 -4 25 -21 52 -37 27 -17 60 -38 75 -47 14 -10
33 -21 41 -25 8 -4 24 -15 34 -25 11 -10 23 -18 27 -18 8 0 106 -62 126 -80 7
-5 16 -10 21 -10 4 0 17 -8 28 -17 23 -20 50 -38 79 -53 11 -6 34 -19 50 -30
17 -11 40 -25 53 -31 12 -7 22 -16 22 -21 0 -4 5 -8 11 -8 7 0 32 -15 58 -33
25 -18 53 -36 61 -40 8 -4 27 -15 42 -25 153 -97 183 -117 186 -124 2 -4 8 -8
13 -8 6 0 42 -21 82 -46 40 -26 97 -63 127 -82 30 -19 74 -48 98 -64 24 -15
47 -28 51 -28 4 0 16 -9 26 -20 10 -11 22 -20 26 -20 4 0 28 -13 52 -30 25
-16 48 -30 51 -30 4 0 12 -5 19 -10 13 -11 156 -103 302 -195 53 -33 102 -65
108 -71 7 -5 19 -13 27 -17 8 -4 29 -16 45 -27 17 -11 37 -23 45 -27 16 -7 72
-45 80 -53 3 -3 27 -19 54 -35 27 -17 60 -38 75 -47 14 -10 32 -21 39 -24 8
-4 56 -34 108 -68 306 -200 299 -196 399 -196 100 0 93 -4 399 196 52 34 100
64 108 68 7 3 27 15 43 26 17 11 38 23 48 26 9 4 17 10 17 14 0 5 9 12 20 15
11 3 26 12 33 18 17 16 69 52 87 60 8 4 29 16 45 27 17 11 37 23 45 27 8 4 20
12 27 17 6 6 55 38 108 71 52 33 125 79 161 102 36 24 70 43 75 43 5 0 9 4 9
9 0 5 14 14 30 21 17 7 30 16 30 21 0 5 5 9 11 9 6 0 31 14 56 30 24 17 48 30
52 30 4 0 16 9 26 20 10 11 22 20 26 20 4 0 27 13 51 29 24 15 77 50 118 76
41 26 98 63 127 81 28 19 53 34 56 34 2 0 47 28 98 63 52 35 101 66 109 70 24
12 51 29 102 65 26 17 51 32 57 32 6 0 11 4 11 8 0 5 10 14 23 21 12 6 36 20
52 31 17 11 39 24 50 30 29 15 56 33 79 53 11 9 23 17 27 17 4 0 37 20 73 45
37 25 70 45 74 45 5 0 17 8 28 18 10 10 26 21 34 25 8 4 27 15 41 25 15 9 48
30 75 47 27 16 51 33 52 37 2 4 9 8 16 8 7 0 21 8 32 18 10 10 26 21 34 25 8
4 29 16 45 27 17 11 38 23 48 26 9 4 17 9 17 13 0 3 21 17 48 31 26 13 49 27
52 30 12 12 79 60 85 60 3 0 37 20 75 45 38 25 74 45 79 45 6 0 11 4 11 8 0 5
16 17 35 28 19 10 35 22 35 26 0 5 5 8 11 8 6 0 31 13 56 30 24 16 48 30 52
30 4 0 16 9 26 20 10 11 24 20 30 20 21 0 109 92 128 133 16 35 17 154 17
1991 0 2139 4 1982 -56 2062 -20 26 -135 114 -149 114 -2 0 -24 14 -48 30 -25
17 -48 30 -51 30 -4 0 -12 5 -19 11 -17 15 -176 118 -212 138 -31 16 -96 61
-105 71 -3 3 -26 17 -52 30 -27 14 -48 28 -48 31 0 4 -8 9 -17 13 -10 3 -31
15 -48 26 -16 11 -37 23 -45 27 -8 4 -24 15 -34 25 -11 10 -25 18 -32 18 -7 0
-14 4 -16 8 -1 4 -25 21 -52 37 -27 17 -59 37 -71 45 -66 45 -105 70 -110 70
-3 0 -34 20 -71 45 -36 25 -69 45 -73 45 -4 0 -16 8 -27 18 -23 19 -50 37 -79
52 -11 6 -33 19 -50 30 -16 11 -40 25 -52 31 -13 7 -23 16 -23 21 0 4 -5 8
-10 8 -6 0 -44 23 -86 50 -41 28 -77 50 -80 50 -2 0 -47 29 -100 65 -53 36
-99 65 -101 65 -2 0 -36 21 -76 47 -40 27 -80 52 -89 58 -83 49 -164 101 -166
107 -2 5 -9 8 -16 8 -7 0 -21 9 -31 20 -10 11 -22 20 -26 20 -4 0 -28 14 -52
30 -25 17 -50 30 -56 30 -6 0 -11 4 -11 9 0 5 -13 14 -30 21 -16 7 -30 16 -30
21 0 5 -4 9 -9 9 -5 0 -39 19 -75 43 -36 23 -109 69 -161 102 -53 33 -102 65
-108 71 -7 5 -19 13 -27 17 -8 4 -28 16 -45 27 -16 11 -39 24 -50 29 -12 5
-27 16 -34 25 -7 9 -20 16 -27 16 -8 0 -14 4 -14 9 0 5 -13 14 -30 21 -16 7
-30 16 -30 21 0 5 -5 9 -11 9 -6 0 -31 14 -56 30 -24 17 -45 30 -47 30 -2 0
-47 28 -99 63 -110 71 -222 142 -275 174 -31 18 -52 22 -127 22 -75 0 -96 -4
-127 -22z m-148 -2311 l0 -1544 -27 -18 c-35 -24 -62 -40 -90 -55 -13 -7 -23
-16 -23 -21 0 -4 -5 -8 -11 -8 -6 0 -31 -13 -56 -30 -24 -16 -48 -30 -54 -30
-5 0 -9 -4 -9 -8 0 -5 -12 -15 -27 -23 -16 -8 -47 -26 -69 -41 -23 -16 -47
-28 -53 -28 -6 0 -11 -3 -11 -8 0 -4 -16 -16 -35 -26 -19 -11 -35 -23 -35 -28
0 -4 -5 -8 -10 -8 -6 0 -40 -19 -76 -42 -51 -33 -62 -44 -52 -53 23 -21 525
-295 540 -295 9 0 26 8 39 18 13 9 40 26 59 36 30 17 61 38 107 76 7 6 19 10
28 10 8 0 15 4 15 8 0 5 10 14 23 21 12 6 36 20 52 31 48 32 55 33 74 16 10
-9 21 -16 25 -16 9 0 70 -43 74 -52 2 -5 12 -8 23 -8 10 0 19 -3 19 -7 0 -5
15 -17 32 -28 18 -11 44 -28 58 -37 14 -10 32 -21 40 -25 8 -4 34 -20 56 -35
23 -15 47 -28 53 -28 6 0 11 -3 11 -8 0 -4 16 -16 35 -26 19 -11 35 -23 35
-28 0 -4 5 -8 11 -8 6 0 31 -13 56 -30 24 -16 46 -30 48 -30 8 0 130 -85 133
-92 2 -5 12 -8 23 -8 10 0 19 -4 19 -9 0 -5 14 -14 30 -21 17 -7 30 -16 30
-21 0 -5 4 -9 9 -9 5 0 43 -23 84 -50 41 -28 78 -50 81 -50 4 0 12 -4 19 -10
18 -14 171 -115 188 -123 8 -4 26 -15 41 -25 14 -9 48 -30 75 -46 26 -16 50
-32 53 -35 3 -3 17 -12 33 -20 15 -8 27 -18 27 -23 0 -4 5 -8 11 -8 6 0 31
-13 56 -30 24 -16 46 -30 49 -30 5 0 66 -42 74 -51 3 -3 25 -16 50 -30 25 -13
47 -26 50 -29 11 -11 69 -50 75 -50 3 0 27 -16 55 -35 27 -19 64 -43 82 -53
18 -9 74 -44 123 -77 50 -33 98 -64 107 -70 83 -49 164 -101 166 -107 2 -5 9
-8 16 -8 7 0 21 -9 31 -20 10 -11 22 -20 26 -20 4 0 28 -13 52 -30 25 -16 48
-30 51 -30 4 0 12 -5 19 -10 11 -10 57 -40 275 -178 37 -24 79 -52 92 -62 l24
-18 -37 -18 c-20 -10 -37 -21 -37 -26 0 -4 -4 -8 -9 -8 -5 0 -43 -22 -84 -50
-41 -27 -80 -50 -86 -50 -6 0 -11 -4 -11 -8 0 -5 -10 -14 -22 -21 -33 -17 -54
-30 -135 -84 -40 -26 -74 -47 -77 -47 -5 0 -164 -104 -183 -120 -7 -5 -15 -10
-19 -10 -3 0 -26 -13 -51 -30 -24 -16 -48 -30 -54 -30 -5 0 -9 -4 -9 -9 0 -5
-13 -14 -30 -21 -16 -7 -30 -16 -30 -20 0 -4 -13 -13 -30 -20 -16 -7 -30 -16
-30 -21 0 -5 -5 -9 -11 -9 -6 0 -31 -13 -56 -30 -24 -16 -46 -30 -48 -30 -2 0
-47 -29 -100 -65 -53 -36 -99 -65 -101 -65 -3 0 -37 -21 -77 -47 -40 -27 -80
-52 -89 -58 -57 -34 -164 -100 -168 -105 -9 -9 -69 -50 -74 -50 -3 0 -25 -13
-49 -30 -25 -16 -49 -30 -55 -30 -6 0 -12 -3 -14 -7 -1 -5 -21 -20 -43 -34
-90 -60 -184 -119 -188 -119 -4 0 -163 -103 -182 -118 -5 -4 -17 -11 -25 -15
-24 -12 -51 -30 -102 -64 -26 -18 -51 -33 -57 -33 -6 0 -11 -4 -11 -9 0 -5
-13 -14 -30 -21 -16 -7 -30 -15 -30 -19 0 -3 -14 -12 -30 -20 -17 -7 -43 -23
-58 -35 -15 -13 -43 -31 -62 -42 -19 -10 -63 -38 -98 -62 -35 -23 -67 -42 -71
-42 -4 0 -16 -8 -27 -18 -25 -22 -53 -39 -81 -51 -11 -6 -24 -15 -28 -20 -3
-6 -17 -11 -30 -11 -13 0 -27 5 -30 11 -4 5 -17 14 -28 20 -28 12 -56 29 -81
51 -11 10 -23 18 -27 18 -4 0 -36 19 -71 43 -35 24 -70 46 -78 50 -8 4 -27 15
-41 25 -89 59 -110 72 -119 72 -5 0 -10 4 -10 9 0 5 -13 14 -30 21 -16 7 -30
16 -30 21 0 5 -6 9 -13 9 -7 0 -23 9 -35 20 -12 11 -23 20 -26 20 -3 0 -25 14
-49 30 -25 17 -48 30 -51 30 -4 0 -12 4 -19 10 -18 15 -179 120 -184 120 -4 0
-98 59 -188 119 -22 14 -42 29 -43 34 -2 4 -8 7 -14 7 -6 0 -30 14 -55 30 -24
17 -46 30 -49 30 -5 0 -65 41 -74 50 -3 3 -38 26 -78 50 -40 25 -84 52 -97 60
-121 76 -180 114 -262 167 -52 35 -97 63 -99 63 -2 0 -23 14 -47 30 -25 17
-50 30 -56 30 -6 0 -11 4 -11 9 0 5 -9 13 -20 16 -11 3 -26 12 -33 18 -18 17
-75 57 -81 57 -3 0 -25 13 -49 30 -25 16 -48 30 -51 30 -4 0 -12 5 -19 10 -12
11 -161 107 -262 170 -31 19 -68 43 -83 52 -15 10 -37 23 -49 29 -13 7 -23 16
-23 21 0 4 -5 8 -10 8 -9 0 -30 12 -119 72 -14 10 -33 21 -41 26 -51 26 -90
56 -83 62 11 10 160 108 211 139 31 19 41 31 46 60 3 20 6 173 6 340 l0 304
-23 -21 c-13 -12 -26 -22 -30 -22 -3 0 -26 -13 -50 -30 -25 -16 -50 -30 -56
-30 -6 0 -11 -4 -11 -9 0 -5 -13 -14 -30 -21 -16 -7 -30 -16 -30 -21 0 -5 -5
-9 -10 -9 -6 0 -44 -23 -84 -50 -40 -28 -76 -50 -79 -50 -3 0 -26 -13 -50 -30
-25 -16 -50 -30 -56 -30 -8 0 -11 423 -11 1543 l0 1544 65 41 c35 23 69 42 73
42 5 0 17 9 27 20 10 11 22 20 26 20 4 0 36 19 71 43 35 24 70 46 78 50 8 4
27 15 41 25 89 59 110 72 119 72 5 0 10 4 10 8 0 5 10 14 23 21 12 6 34 19 49
29 15 9 52 33 83 52 101 63 250 159 262 170 7 5 15 10 19 10 3 0 26 14 51 30
24 17 46 30 49 30 6 0 63 40 81 57 7 6 22 15 33 18 11 3 20 11 20 16 0 5 5 9
11 9 6 0 31 14 56 30 24 17 45 30 47 30 2 0 47 28 99 63 82 53 141 91 262 167
13 8 57 35 97 60 40 24 75 47 78 50 9 9 69 50 74 50 3 0 25 14 49 30 25 17 49
30 55 30 6 0 12 3 14 8 2 4 21 19 43 33 90 60 184 119 188 119 3 0 151 95 182
118 6 4 26 16 45 26 19 10 44 27 55 36 11 9 36 26 55 36 19 10 41 25 48 32 7
6 17 12 22 12 5 0 15 6 22 13 7 6 29 21 48 31 19 10 44 27 55 36 22 19 95 60
107 60 5 0 8 -695 8 -1544z m630 1508 c19 -13 51 -35 70 -48 19 -14 41 -25 48
-25 6 -1 12 -5 12 -10 0 -5 14 -14 30 -21 17 -7 30 -15 30 -19 0 -3 14 -12 30
-20 17 -7 43 -23 58 -35 15 -13 43 -31 62 -42 19 -10 39 -22 45 -26 31 -23
179 -118 182 -118 4 0 98 -59 188 -119 22 -14 42 -29 43 -33 2 -5 8 -8 14 -8
6 0 30 -13 55 -30 24 -16 46 -30 49 -30 5 0 65 -41 74 -50 3 -3 38 -26 78 -50
40 -25 84 -52 97 -60 121 -76 180 -114 262 -167 52 -35 97 -63 99 -63 2 0 23
-13 47 -30 25 -16 50 -30 56 -30 6 0 11 -4 11 -9 0 -5 9 -13 20 -16 11 -3 26
-12 33 -18 18 -17 75 -57 81 -57 3 0 25 -13 49 -30 25 -16 48 -30 51 -30 4 0
12 -5 19 -10 19 -16 178 -120 183 -120 3 0 37 -21 77 -47 81 -54 102 -67 135
-84 12 -7 22 -16 22 -21 0 -4 5 -8 10 -8 9 0 30 -13 119 -72 14 -10 33 -21 41
-25 8 -4 43 -26 78 -50 35 -24 65 -43 67 -43 2 0 23 -13 47 -28 24 -16 67 -44
96 -62 l52 -33 0 -1544 c0 -1045 -3 -1543 -10 -1543 -11 0 -89 47 -195 118
-35 23 -67 42 -70 42 -8 0 -69 44 -73 53 -2 4 -8 7 -14 7 -6 0 -30 14 -55 30
-24 17 -48 30 -52 30 -4 0 -16 9 -26 20 -10 11 -24 20 -31 20 -7 0 -14 3 -16
8 -1 4 -35 27 -75 50 -40 24 -77 50 -84 58 -6 8 -16 14 -21 14 -9 0 -153 90
-175 109 -7 6 -15 11 -18 11 -3 0 -39 22 -81 50 -41 27 -78 50 -80 50 -5 0
-64 40 -74 50 -3 3 -15 11 -27 18 -13 6 -33 18 -45 25 -13 6 -25 14 -28 17
-10 10 -69 50 -74 50 -3 0 -25 14 -49 30 -25 17 -50 30 -56 30 -6 0 -11 4 -11
8 0 5 -12 15 -27 23 -15 8 -55 32 -88 54 -33 22 -72 46 -87 54 -16 8 -28 18
-28 23 0 4 -5 8 -11 8 -8 0 -138 80 -174 107 -5 5 -22 14 -37 22 -16 8 -28 18
-28 23 0 4 -5 8 -11 8 -6 0 -31 14 -56 30 -24 17 -48 30 -54 30 -5 0 -9 3 -9
8 0 4 -21 18 -47 32 -27 13 -50 27 -53 30 -12 12 -79 60 -85 60 -3 0 -37 20
-75 45 -38 25 -74 45 -79 45 -6 0 -11 4 -11 8 0 5 -16 17 -35 28 -19 10 -35
22 -35 26 0 5 -5 8 -11 8 -6 0 -31 14 -56 30 -24 17 -48 30 -52 30 -4 0 -16 9
-26 20 -10 11 -22 20 -26 20 -4 0 -28 14 -52 30 -25 17 -50 30 -56 30 -6 0
-11 4 -11 8 0 5 -10 14 -22 21 -29 15 -56 31 -90 55 l-28 18 0 1545 0 1544 23
-7 c12 -4 38 -17 57 -30z"/>
<path d="M2170 5608 c0 -249 4 -458 8 -464 4 -7 186 -116 405 -244 l397 -232
0 -214 0 -215 -27 15 c-16 8 -102 60 -193 115 l-165 99 -6 -251 c-3 -139 -7
-448 -8 -688 l-1 -437 200 -131 c110 -72 207 -134 215 -137 13 -5 15 25 17
219 l3 225 405 -257 405 -258 0 -238 0 -237 223 -144 c122 -79 227 -144 233
-144 11 0 11 1269 0 1398 l-6 72 -205 123 -205 123 -3 226 -2 226 435 -254
c240 -140 440 -252 445 -249 16 10 13 970 -2 983 -16 12 -870 490 -892 498
-14 5 -16 -37 -18 -464 l-3 -470 -412 240 -413 240 0 463 0 463 -132 72 c-113
62 -338 189 -388 220 -59 36 -290 160 -299 160 -8 0 -11 -132 -11 -452z"/>
<path d="M3690 4724 c-19 -12 -39 -23 -43 -23 -4 -1 -13 -6 -20 -11 -23 -19
-176 -117 -193 -124 -16 -6 -16 -8 2 -20 51 -35 286 -167 290 -163 2 2 3 85 2
184 l-3 180 -35 -23z"/>
</g>
</svg>
