<?xml version="1.0" standalone="no"?>
<!DOCTYPE svg PUBLIC "-//W3C//DTD SVG 20010904//EN"
 "http://www.w3.org/TR/2001/REC-SVG-20010904/DTD/svg10.dtd">
<svg version="1.0" xmlns="http://www.w3.org/2000/svg"
  viewBox="0 0 840.000000 876.000000"
 preserveAspectRatio="xMidYMid meet">

<g transform="translate(0.000000,876.000000) scale(0.100000,-0.100000)"
stroke="none">
<path d="M3955 8353 c-967 -53 -1891 -464 -2578 -1146 -661 -656 -1061 -1495
-1159 -2427 -17 -162 -17 -618 0 -780 81 -770 373 -1481 858 -2090 138 -172
430 -465 602 -602 597 -476 1257 -755 2027 -855 219 -28 741 -26 965 5 389 53
725 144 1060 288 110 47 139 56 174 51 22 -2 448 -75 946 -162 1292 -224 1345
-233 1347 -231 2 2 -58 319 -132 707 -74 387 -151 787 -171 889 -19 102 -57
300 -85 441 l-49 256 33 74 c154 338 265 735 318 1144 19 143 23 218 23 470 0
322 -11 457 -60 725 -309 1683 -1685 2990 -3384 3214 -227 30 -510 41 -735 29z
m615 -498 c485 -58 947 -211 1346 -446 962 -565 1596 -1532 1718 -2619 74
-664 -33 -1302 -319 -1908 l-58 -121 71 -368 c100 -517 262 -1365 265 -1383 3
-19 100 -34 -910 141 -474 82 -872 149 -883 149 -11 0 -55 -18 -98 -39 -187
-94 -451 -192 -667 -246 -439 -112 -935 -136 -1385 -69 -1256 188 -2319 1057
-2759 2256 -89 243 -153 509 -187 783 -22 175 -25 604 -6 775 138 1196 851
2218 1921 2754 365 183 808 311 1201 346 63 5 133 12 155 14 82 8 474 -4 595
-19z"/>
</g>
</svg>
