<?xml version="1.0" standalone="no"?>
<!DOCTYPE svg PUBLIC "-//W3C//DTD SVG 20010904//EN"
 "http://www.w3.org/TR/2001/REC-SVG-20010904/DTD/svg10.dtd">
<svg version="1.0" xmlns="http://www.w3.org/2000/svg" viewBox="0 0 820.000000 742.000000"
 preserveAspectRatio="xMidYMid meet">

<g transform="translate(0.000000,742.000000) scale(0.100000,-0.100000)" stroke="none">
<path d="M4595 7010 c-603 -46 -1158 -355 -1521 -846 -60 -82 -152 -229 -186
-299 -12 -25 -26 -45 -31 -45 -4 0 -29 14 -53 31 -75 51 -228 119 -328 144
-288 73 -588 19 -846 -153 -252 -167 -438 -457 -480 -747 -18 -127 -14 -121
-124 -170 -199 -89 -338 -188 -497 -352 -253 -262 -397 -585 -418 -937 -27
-464 123 -862 448 -1187 231 -230 485 -367 804 -431 111 -23 120 -23 894 -23
777 0 782 0 810 21 54 40 75 83 71 144 -4 62 -25 97 -73 127 -28 17 -77 18
-810 24 -682 5 -789 8 -850 22 -262 63 -461 173 -632 348 -87 90 -100 105
-168 215 -183 290 -228 680 -118 1019 81 252 263 490 487 639 95 64 162 96
300 146 81 29 104 42 129 72 28 35 30 44 38 160 10 152 27 218 84 333 232 472
837 589 1247 241 78 -66 97 -76 143 -76 86 0 131 43 183 173 153 385 488 734
882 921 591 279 1268 215 1814 -171 109 -78 316 -286 399 -403 134 -189 248
-455 298 -696 21 -97 23 -138 24 -374 0 -261 0 -266 23 -298 35 -48 54 -55
197 -68 72 -7 166 -22 210 -33 423 -108 735 -445 816 -881 18 -98 16 -300 -5
-400 -93 -439 -407 -758 -854 -867 -58 -14 -176 -17 -904 -22 -829 -6 -837 -6
-865 -27 -98 -73 -98 -195 0 -268 28 -21 32 -21 865 -21 770 0 844 1 927 18
297 61 544 191 751 397 272 270 418 620 417 1000 0 389 -142 723 -424 995
-202 195 -445 321 -725 376 l-109 21 3 121 c14 499 -200 1038 -568 1430 -427
454 -1063 704 -1675 657z"/>
<path d="M4035 3736 c-37 -16 -70 -52 -84 -89 -8 -20 -11 -466 -11 -1445 l0
-1417 -277 277 c-240 239 -284 278 -320 288 -74 19 -155 -16 -188 -80 -19 -37
-19 -113 -1 -148 8 -15 224 -236 481 -492 l466 -464 465 464 c256 256 472 477
480 492 34 65 7 162 -57 205 -43 28 -118 34 -160 13 -13 -7 -147 -134 -296
-283 l-273 -272 0 1420 c0 1398 0 1419 -20 1460 -35 73 -128 105 -205 71z"/>
</g>
</svg>
